<?xml version="1.0" encoding="utf-8"?>
<!-- Generator: Adobe Illustrator 13.0.1, SVG Export Plug-In . SVG Version: 6.00 Build 14948)  -->
<!DOCTYPE svg PUBLIC "-//W3C//DTD SVG 1.1//EN" "http://www.w3.org/Graphics/SVG/1.1/DTD/svg11.dtd">
<svg version="1.1" id="Layer_1" xmlns="http://www.w3.org/2000/svg" xmlns:xlink="http://www.w3.org/1999/xlink" x="0px" y="0px"
	 width="187.086px" height="124.415px" viewBox="0 0 187.086 124.415" enable-background="new 0 0 187.086 124.415"
	 xml:space="preserve">
<g>
	<path fill-rule="evenodd" clip-rule="evenodd" d="M14.502,118.924c0.622-1.141,1.347-2.176,2.072-3.213l-1.969,0.313
		c-2.486,3.936-6.526,8.08-11.499,8.08c-1.761,0-2.9-0.83-2.9-1.969c0-0.725,0.518-1.348,1.14-1.348
		c0.622,0,1.139,0.311,1.139,1.037c0,0.725-0.518,1.035-0.932,1.035c-0.207,0-0.415,0-0.415,0.207c0,0.518,1.14,0.725,1.968,0.725
		c4.455,0,7.355-4.764,9.531-7.561c-2.383,0.518-4.455,1.553-5.905,2.9l-0.208-0.104c1.036-1.244,4.144-2.9,6.319-3.109
		c1.761-2.588,5.594-7.043,8.702-9.012v-0.104c-1.347,0.828-2.383,1.348-3.625,1.348c-2.072,0-2.797-2.072-5.387-2.072
		s-5.49,2.383-5.49,4.973c0,1.553,1.243,2.279,2.279,2.279c2.176,0,5.18-2.486,5.698-4.455h0.207
		c-0.518,2.383-2.9,4.766-5.594,4.766c-1.761,0-2.9-0.934-2.9-2.797c0-2.797,4.247-5.697,6.837-5.697
		c2.279,0,3.625,2.277,5.697,2.277c1.347,0,2.693-1.035,3.833-1.863l0.104,0.311c-3.625,2.59-6.008,6.215-8.391,9.84l1.968-0.311
		c1.036-1.449,2.382-3.004,3.004-3.521l0.104,0.104c-0.932,0.828-1.864,2.176-2.589,3.418l1.968-0.311
		c1.554-2.072,8.08-9.633,10.774-9.633c0.518,0,0.829,0.311,0.829,0.725c0,3.211-6.63,8.391-9.841,8.908
		c-1.14,1.555-4.144,5.283-4.144,7.252c0,1.035,0.932,1.449,1.761,1.449c3.833,0,7.666-4.66,7.666-6.525
		c0-0.828-0.415-1.348-1.14-1.348c-1.657,0-3.625,1.969-4.558,3.109h-0.311c1.14-1.348,3.004-3.42,4.869-3.42
		c1.036,0,1.45,0.727,1.45,1.762c0,3.107-4.869,6.734-7.666,6.734c-1.968,0-2.693-1.037-2.693-2.693c0-1.969,1.761-4.455,2.797-6.01
		l-1.865,0.311c-0.621,0.83-1.346,1.969-1.865,3.213H14.502L14.502,118.924z M30.042,105.768c-1.761,0-7.873,7.873-8.806,9.012l0,0
		c3.419-0.725,9.323-6.215,9.323-8.701C30.559,105.872,30.352,105.768,30.042,105.768L30.042,105.768z"/>
	<path fill-rule="evenodd" clip-rule="evenodd" d="M37.604,119.338c-0.415,0.311-1.243,0.828-1.968,0.828
		c-0.622,0-1.036-0.207-1.347-0.518c-2.486,3.107-4.558,4.455-6.63,4.455c-0.725,0-1.554-0.623-1.554-1.555
		c0-2.486,4.765-7.045,7.562-7.045c0.518,0,0.933,0.207,1.036,0.623c0.104-0.104,0.207-0.104,0.311-0.104
		c0.414,0,0.518,0.311,0.518,0.725c0,0.932-0.622,2.176-1.14,2.693c0.415,0.311,0.829,0.414,1.243,0.414s1.243-0.311,1.865-0.828
		L37.604,119.338L37.604,119.338z M34.392,116.334c0-0.207-0.207-0.518-0.622-0.518c-1.14,0-3.211,2.484-6.008,5.697
		c-0.621,0.725-0.725,1.139-0.725,1.553c0,0.311,0.207,0.725,0.933,0.725c1.761,0,4.247-1.967,6.008-4.35
		c-0.207-0.414-0.311-0.828-0.311-1.348C33.667,117.37,33.978,116.645,34.392,116.334L34.392,116.334z"/>
	<path fill-rule="evenodd" clip-rule="evenodd" d="M45.477,110.635h1.657l-3.314,3.523h1.657l-0.207,0.311h-1.658l-6.423,6.941
		c-1.139,1.242-1.657,1.76-1.657,2.07c0,0.207,0.311,0.311,0.622,0.311c0.725,0,2.279-0.725,6.526-4.453l0.207,0.207
		c-3.625,3.211-5.698,4.559-6.837,4.559c-0.622,0-0.933-0.416-0.933-1.037c0-0.725,0.415-1.656,1.865-3.314l4.869-5.283h-1.657
		l0.207-0.311h1.761L45.477,110.635L45.477,110.635z"/>
	<path fill-rule="evenodd" clip-rule="evenodd" d="M50.863,119.752c-2.383,2.072-5.49,4.352-8.288,4.352
		c-0.829,0-1.657-0.313-1.657-1.244c0-2.797,5.076-7.148,7.873-7.148c0.622,0,1.139,0.52,1.139,1.141
		c0,2.383-4.558,3.729-6.422,3.729c-1.554,1.658-1.761,2.279-1.761,2.59c0,0.518,0.518,0.621,1.036,0.621
		c2.279,0,4.972-1.863,8.08-4.35V119.752L50.863,119.752z M48.792,116.024c-1.036,0-2.383,1.242-5.076,4.246
		c2.797,0,5.594-2.383,5.594-3.729C49.309,116.231,49.103,116.024,48.792,116.024L48.792,116.024z"/>
	<path fill-rule="evenodd" clip-rule="evenodd" d="M57.908,120.063c-3.937,3.521-5.905,4.041-7.044,4.041
		c-1.036,0-1.45-0.623-1.45-1.555c0-3.107,13.052-16.988,15.746-16.988c0.518,0,0.933,0.311,0.933,0.932
		c0,3.004-7.563,7.873-11.499,10.463c0,0-4.558,5.594-4.558,6.215c0,0.414,0.311,0.621,0.621,0.621c1.451,0,3.419-0.828,6.423-3.418
		L57.908,120.063L57.908,120.063z M65.263,105.872c-1.036,0-4.662,3.418-10.152,10.359h0.103c4.973-3.523,10.566-7.148,10.566-9.738
		C65.78,106.079,65.573,105.872,65.263,105.872L65.263,105.872z"/>
	<path fill-rule="evenodd" clip-rule="evenodd" d="M82.77,116.024c-1.658,1.553-4.04,4.246-5.905,6.215
		c-0.415,0.518-0.622,0.828-0.622,1.035c0,0.414,0.311,0.518,0.622,0.518c1.554,0,5.491-3.107,6.733-4.453l0.311,0.207
		c-1.347,1.346-5.18,4.559-7.148,4.559c-0.725,0-1.14-0.52-1.14-1.037c0-0.414,0.104-0.725,0.311-1.035h-0.104
		c-1.45,1.346-2.797,2.072-3.833,2.072c-1.036,0-1.657-0.623-1.657-1.658c0-3.211,5.697-6.734,7.769-6.734
		c0.829,0,1.554,0.416,1.554,1.037c0,0.207,0,0.311-0.104,0.621h0.104l1.347-1.346H82.77L82.77,116.024z M78.419,116.024
		c-1.14,0-2.072,0.518-6.423,5.074c-1.036,1.141-1.036,1.658-1.036,1.969c0,0.414,0.311,0.725,1.036,0.725
		c2.382,0,7.355-5.49,7.355-6.836C79.351,116.334,78.833,116.024,78.419,116.024L78.419,116.024z"/>
	<path fill-rule="evenodd" clip-rule="evenodd" d="M86.81,116.024h1.554l-2.279,2.381l0.104,0.104
		c1.243-1.139,3.211-2.691,4.351-2.691c0.932,0,1.554,0.621,1.554,1.553c0,2.072-4.351,5.18-4.351,6.111
		c0,0.207,0.103,0.311,0.414,0.311c0.829,0,2.486-1.242,6.112-4.453v0.311c-2.797,2.59-5.076,4.455-6.112,4.455
		c-0.622,0-1.036-0.313-1.036-1.141c0-1.969,4.351-5.076,4.351-6.111c0-0.414-0.311-0.725-0.829-0.725
		c-1.554,0-5.698,3.521-9.22,7.561h-1.761L86.81,116.024L86.81,116.024z"/>
	<path fill-rule="evenodd" clip-rule="evenodd" d="M110.325,108.358h1.864l-13.053,13.57c-0.828,0.828-1.035,1.242-1.035,1.449
		c0,0.311,0.207,0.414,0.725,0.414c1.45,0,3.315-1.242,6.837-4.453l0.104,0.207c-3.729,3.418-5.283,4.559-7.147,4.559
		c-0.414,0-1.14-0.207-1.14-0.934c0-0.414,0-0.725,0.207-1.035l0,0c-1.14,1.139-2.486,1.969-3.625,1.969
		c-1.243,0-1.554-0.83-1.554-1.658c0-2.797,4.765-6.629,7.562-6.629c0.933,0,1.657,0.311,1.657,1.035
		c0,0.311-0.104,0.518-0.207,0.828l0,0L110.325,108.358L110.325,108.358z M100.483,116.127c-1.243,0-5.076,3.211-6.526,5.18
		c-0.725,1.035-0.829,1.346-0.829,1.656c0,0.518,0.415,0.828,1.036,0.828c2.072,0,7.251-5.594,7.251-6.836
		C101.416,116.438,101.002,116.127,100.483,116.127L100.483,116.127z"/>
	<path fill-rule="evenodd" clip-rule="evenodd" d="M125.553,107.838c0,3.523-3.418,7.666-6.94,7.666
		c-1.45,0-2.279-1.035-2.279-2.383c0-3.936,6.63-7.975,12.742-7.975c1.657,0,3.211,0.311,4.04,0.725
		c0.621-0.311,1.243-0.52,1.761-0.623l0.104,0.209c-0.518,0.207-1.035,0.414-1.45,0.518c1.347,0.725,2.383,1.863,2.383,3.418
		c0,2.693-3.211,4.352-5.49,4.766c0.207,0.414,0.311,0.725,0.311,1.139c0,1.762-3.937,4.559-3.937,6.941
		c0,1.139,1.036,1.553,1.968,1.553c2.279,0,6.423-3.832,6.423-6.111c0-0.725-0.621-1.242-1.347-1.242
		c-1.035,0-2.278,1.242-2.9,1.967l-0.311-0.104c0.726-0.828,1.968-2.174,3.211-2.174c0.829,0,1.658,0.518,1.658,1.656
		c0,2.693-3.626,6.32-6.734,6.32c-1.657,0-2.9-1.141-2.9-2.902c0-2.693,4.04-5.074,4.04-7.043c-0.311,0.104-0.828,0.207-1.45,0.207
		c-0.932,0-1.657-0.621-1.657-1.348h-0.104c-3.107,4.352-7.044,11.086-13.26,11.086c-1.864,0-3.107-0.83-3.107-2.072
		c0-0.83,0.725-1.348,1.243-1.348c0.725,0,1.242,0.518,1.242,1.244c0,0.932-1.346,0.828-1.346,1.035
		c0,0.414,0.932,0.828,2.071,0.828c6.733,0,11.81-15.123,19.165-17.713c-1.036-0.518-2.693-0.621-3.419-0.621
		c-7.044,0-12.639,4.557-12.639,7.457c0,1.244,0.622,2.279,1.969,2.279c2.383,0,6.63-4.143,6.63-7.355H125.553L125.553,107.838z
		 M133.115,106.182c-1.657,1.035-3.419,2.486-6.216,6.422l0.104,0.104c0.207-0.207,0.622-0.207,1.036-0.207
		c0.622,0,1.761,0.311,2.279,1.348c2.071-0.518,4.351-2.797,4.351-4.869C134.669,107.528,133.944,106.7,133.115,106.182
		L133.115,106.182z M129.903,113.952c-0.207-0.83-1.14-1.141-1.968-1.141c-0.518,0-0.829,0.104-0.829,0.416
		c0,0.311,0.519,0.828,1.451,0.828C129.075,114.055,129.593,114.055,129.903,113.952L129.903,113.952z"/>
	<path fill-rule="evenodd" clip-rule="evenodd" d="M145.546,119.752c-2.383,2.072-5.904,4.352-8.598,4.352
		c-0.829,0-1.657-0.313-1.657-1.244c0-2.797,5.075-7.148,7.872-7.148c0.622,0,1.14,0.52,1.14,1.141c0,2.383-4.558,3.729-6.423,3.729
		c-1.554,1.658-1.761,2.279-1.761,2.59c0,0.518,0.519,0.621,1.036,0.621c2.279,0,5.387-1.863,8.391-4.35V119.752L145.546,119.752z
		 M143.163,116.024c-1.035,0-2.382,1.242-5.075,4.246c2.797,0,5.594-2.383,5.594-3.729
		C143.682,116.231,143.475,116.024,143.163,116.024L143.163,116.024z"/>
	<path fill-rule="evenodd" clip-rule="evenodd" d="M163.364,119.338c-0.519,0.311-1.243,0.828-2.072,0.828
		c-0.621,0-0.933-0.207-1.347-0.518c-2.486,3.107-4.558,4.455-6.526,4.455c-0.828,0-1.657-0.623-1.657-1.555
		c0-2.486,4.868-7.045,7.563-7.045c0.518,0,0.932,0.207,1.14,0.623c0.103-0.104,0.207-0.104,0.311-0.104
		c0.311,0,0.518,0.311,0.518,0.725c0,0.932-0.726,2.176-1.14,2.693c0.312,0.311,0.726,0.414,1.14,0.414
		c0.519,0,1.347-0.311,1.864-0.828L163.364,119.338L163.364,119.338z M160.152,116.334c-0.104-0.207-0.311-0.518-0.621-0.518
		c-1.14,0-3.212,2.484-6.009,5.697c-0.621,0.725-0.828,1.139-0.828,1.553c0,0.311,0.311,0.725,1.035,0.725
		c1.762,0,4.248-1.967,6.009-4.35c-0.207-0.414-0.311-0.828-0.311-1.348C159.428,117.37,159.738,116.645,160.152,116.334
		L160.152,116.334z"/>
	<path fill-rule="evenodd" clip-rule="evenodd" d="M165.954,116.024h1.761l-3.315,3.625l0,0c0.829-0.621,1.865-1.035,3.212-1.451
		c0.207-1.139,1.554-2.381,2.175-2.381c0.415,0,0.622,0.102,0.622,0.518c0,0.932-1.657,1.863-2.486,2.07
		c0,0.727,0.311,1.348,0.933,1.348c0.518,0,4.454-1.865,4.661-2.072l0.104,0.207c-0.207,0.207-4.351,2.176-4.765,2.176
		c-0.726,0-1.243-0.621-1.243-1.555c-2.176,0.52-3.729,1.658-5.18,3.316l-1.554,1.863h-1.658L165.954,116.024L165.954,116.024z"/>
	<path fill-rule="evenodd" clip-rule="evenodd" d="M178.799,110.635h1.762l-3.315,3.523h1.554l-0.207,0.311h-1.657l-6.423,6.941
		c-1.036,1.242-1.554,1.76-1.554,2.07c0,0.207,0.311,0.311,0.518,0.311c0.829,0,3.522-0.518,7.77-4.246l-0.104,0.207
		c-3.314,3.314-6.526,4.352-7.77,4.352c-0.621,0-0.933-0.416-0.933-1.037c0-0.725,0.519-1.656,1.969-3.314l4.869-5.283h-1.762
		l0.312-0.311h1.657L178.799,110.635L178.799,110.635z"/>
	<path fill-rule="evenodd" clip-rule="evenodd" d="M3.211,74.379H0v-0.828h17.817l0.208,6.525h-0.829
		c-0.518-2.072-0.932-4.352-3.107-5.283c-0.725-0.311-1.969-0.414-3.315-0.414H7.355v9.219c3.004,0,4.662-0.518,4.869-3.936h0.829
		v9.012h-0.829c-0.311-3.625-1.45-4.35-4.869-4.246v9.736h3.107v0.83H0v-0.83h3.211V74.379L3.211,74.379z"/>
	<path fill-rule="evenodd" clip-rule="evenodd" d="M18.439,86.602c0-3.936,3.419-7.873,7.458-7.873c3.937,0,7.458,3.938,7.458,7.873
		c0,4.352-2.693,8.807-7.458,8.807C21.132,95.409,18.439,90.954,18.439,86.602L18.439,86.602z M29.834,84.116
		c0-0.932-0.104-1.656-0.414-2.381c-0.415-1.451-1.45-2.486-3.522-2.486c-2.175,0-3.211,1.035-3.625,2.486
		c-0.207,0.725-0.311,1.449-0.311,2.381v5.182c0,0.932,0,1.863,0.208,2.693c0.518,1.656,1.45,2.797,3.729,2.797
		c2.279,0,3.211-1.141,3.626-2.797c0.207-0.83,0.311-1.762,0.311-2.693V84.116L29.834,84.116z"/>
	<path fill-rule="evenodd" clip-rule="evenodd" d="M51.795,79.042v0.621h-2.382v10.049c0,2.383-0.518,3.521-1.45,4.453
		c-1.036,0.83-2.486,1.244-4.662,1.244c-1.657,0-3.211-0.518-4.247-1.348c-1.036-0.725-1.45-2.279-1.45-4.973v-9.426h-2.383v-0.621
		h7.77v0.621h-2.382v8.701c0,3.314-0.311,6.215,4.04,6.215c2.797,0,3.937-1.76,3.937-4.35V79.663h-2.279v-0.621H51.795
		L51.795,79.042z"/>
	<path fill-rule="evenodd" clip-rule="evenodd" d="M58.943,94.372h2.383v0.623h-7.77v-0.623h2.383V79.663h-2.383v-0.621h7.977
		c2.59,0,5.697,0.311,5.697,3.625c0,2.693-2.797,3.625-5.076,3.936l0,0c3.729,0.623,4.558,2.59,4.558,6.527
		c0,0.828,0.104,1.762,2.382,1.346v0.52c-0.622,0.207-1.347,0.311-1.968,0.311c-2.486,0-3.729-1.244-3.729-3.627
		c0-1.967-0.311-3.521-0.933-4.039c-0.725-0.518-1.45-0.828-2.175-0.828h-1.347V94.372L58.943,94.372z M58.943,86.188h1.968
		c2.175,0,3.004-1.035,3.004-3.211c0-2.59-0.725-3.314-2.901-3.314h-2.072V86.188L58.943,86.188z"/>
	<path fill-rule="evenodd" clip-rule="evenodd" d="M79.144,95.202h-0.519v-6.424h0.933c0.622,3.107,2.486,5.904,5.905,5.904
		c2.486,0,4.765-1.863,4.765-4.453c0-3.004-2.693-3.627-5.076-4.455c-0.622-0.207-1.243-0.414-1.968-0.621
		c-2.901-0.932-4.455-3.107-4.455-6.215c0-3.316,2.486-5.803,5.905-5.803c1.864,0,3.211,0.416,4.662,1.555l1.243-1.244h0.518v6.01
		h-1.036c-0.311-3.004-2.279-5.594-5.49-5.594c-2.072,0-4.041,1.553-4.041,3.729c0,2.486,1.761,2.693,3.729,3.211
		c0.829,0.207,1.45,0.518,1.968,0.623c0.622,0.207,1.45,0.414,2.176,0.725c2.693,1.346,3.625,3.418,3.625,6.318
		c0,4.041-2.59,7.045-6.733,7.045c-1.554,0-3.522-0.621-4.558-1.658L79.144,95.202L79.144,95.202z"/>
	<path fill-rule="evenodd" clip-rule="evenodd" d="M100.483,79.663v6.836c2.279,0,3.522-0.311,3.626-2.9h0.621v6.631h-0.621
		c-0.207-2.59-1.036-3.211-3.626-3.107v7.25h3.315c3.107,0,3.833-1.76,4.351-4.453h0.622l-0.208,5.076h-13.57v-0.623h2.383V79.663
		h-2.383v-0.621h13.26l0.104,4.35h-0.621c-0.519-2.279-1.45-3.211-2.693-3.521c-0.622-0.207-1.243-0.207-2.072-0.207H100.483
		L100.483,79.663z"/>
	<path fill-rule="evenodd" clip-rule="evenodd" d="M110.532,94.995v-0.623h1.968l5.698-15.643h0.828l5.387,15.643h1.969v0.623
		h-7.563v-0.623h2.486l-1.45-4.143h-5.18l-1.45,4.143h2.383v0.623H110.532L110.532,94.995z M114.883,89.608h4.662l-2.176-6.734
		L114.883,89.608L114.883,89.608z"/>
	<path fill-rule="evenodd" clip-rule="evenodd" d="M128.868,95.202h-0.415v-4.766h0.622c0.518,2.279,1.864,4.352,4.454,4.352
		c1.865,0,3.522-1.451,3.522-3.316c0-2.279-1.969-2.693-3.729-3.314c-0.518-0.207-1.036-0.311-1.45-0.518
		c-2.279-0.621-3.314-2.279-3.314-4.559c0-2.486,1.864-4.352,4.351-4.352c1.347,0,2.383,0.313,3.418,1.141l0.933-0.932h0.414v4.557
		h-0.725c-0.311-2.279-1.762-4.246-4.144-4.246c-1.555,0-3.005,1.139-3.005,2.797c0,1.76,1.347,1.969,2.797,2.383
		c0.622,0.207,1.036,0.311,1.45,0.518c0.519,0.104,1.14,0.311,1.658,0.518c1.968,0.932,2.693,2.486,2.693,4.662
		c0,3.004-1.969,5.283-5.076,5.283c-1.14,0-2.59-0.518-3.419-1.244L128.868,95.202L128.868,95.202z"/>
	<path fill-rule="evenodd" clip-rule="evenodd" d="M141.609,86.602c0-3.936,3.419-7.873,7.459-7.873
		c3.937,0,7.354,3.938,7.354,7.873c0,4.352-2.693,8.807-7.354,8.807C144.303,95.409,141.609,90.954,141.609,86.602L141.609,86.602z
		 M152.901,84.116c0-0.932-0.104-1.656-0.311-2.381c-0.519-1.451-1.451-2.486-3.522-2.486c-2.176,0-3.212,1.035-3.626,2.486
		c-0.207,0.725-0.311,1.449-0.311,2.381v5.182c0,0.932,0,1.863,0.207,2.693c0.414,1.656,1.45,2.797,3.729,2.797
		c2.278,0,3.211-1.141,3.626-2.797c0.207-0.83,0.207-1.762,0.207-2.693V84.116L152.901,84.116z"/>
	<polygon fill-rule="evenodd" clip-rule="evenodd" points="172.272,95.305 171.548,95.305 161.499,80.18 161.499,94.372 
		163.778,94.372 163.778,94.995 158.392,94.995 158.392,94.372 160.671,94.372 160.671,79.663 158.392,79.663 158.392,79.042 
		164.503,79.042 171.548,89.504 171.548,79.663 169.269,79.663 169.269,79.042 174.655,79.042 174.655,79.663 172.272,79.663 
		172.272,95.305 	"/>
	<path fill-rule="evenodd" clip-rule="evenodd" d="M177.556,95.202h-0.414v-4.766h0.725c0.519,2.279,1.865,4.352,4.352,4.352
		c1.864,0,3.626-1.451,3.626-3.316c0-2.279-2.072-2.693-3.833-3.314c-0.415-0.207-0.933-0.311-1.45-0.518
		c-2.176-0.621-3.315-2.279-3.315-4.559c0-2.486,1.864-4.352,4.351-4.352c1.451,0,2.383,0.313,3.522,1.141l0.933-0.932h0.414v4.557
		h-0.829c-0.207-2.279-1.657-4.246-4.04-4.246c-1.554,0-3.004,1.139-3.004,2.797c0,1.76,1.243,1.969,2.693,2.383
		c0.622,0.207,1.14,0.311,1.554,0.518c0.414,0.104,1.036,0.311,1.554,0.518c1.969,0.932,2.693,2.486,2.693,4.662
		c0,3.004-1.968,5.283-4.972,5.283c-1.14,0-2.59-0.518-3.419-1.244L177.556,95.202L177.556,95.202z"/>
	<path fill-rule="evenodd" clip-rule="evenodd" d="M109.082,44.13c0.414,0,0.725-0.415,0.725-0.725c0-0.415-0.311-0.829-0.725-0.829
		c-0.415,0-0.726,0.415-0.726,0.829C108.356,43.716,108.667,44.13,109.082,44.13L109.082,44.13z"/>
	<polygon fill-rule="evenodd" clip-rule="evenodd" points="108.149,42.473 108.771,42.68 109.082,42.059 109.289,42.68 
		110.014,42.473 109.703,43.095 110.325,43.405 109.703,43.612 110.014,44.337 109.289,44.027 109.082,44.648 108.771,44.027 
		108.149,44.337 108.356,43.612 107.735,43.405 108.356,43.095 108.149,42.473 	"/>
	<path fill-rule="evenodd" clip-rule="evenodd" d="M90.436,11.188c1.139,0.104,2.072,0.622,2.175,2.072
		C91.264,13.156,90.643,12.328,90.436,11.188L90.436,11.188z"/>
	<path fill-rule="evenodd" clip-rule="evenodd" d="M90.436,9.013c1.139,0.104,2.072,0.622,2.279,1.968
		C91.264,10.981,90.643,10.152,90.436,9.013L90.436,9.013z"/>
	<path fill-rule="evenodd" clip-rule="evenodd" d="M90.539,6.733c1.139,0.104,1.968,0.622,2.175,2.072
		C91.368,8.702,90.746,7.873,90.539,6.733L90.539,6.733z"/>
	<path fill-rule="evenodd" clip-rule="evenodd" d="M90.539,4.558c1.139,0.104,2.072,0.622,2.175,1.968
		C91.368,6.526,90.746,5.698,90.539,4.558L90.539,4.558z"/>
	<path fill-rule="evenodd" clip-rule="evenodd" d="M90.539,2.279c1.139,0.104,2.072,0.725,2.279,2.072
		C91.368,4.248,90.746,3.419,90.539,2.279L90.539,2.279z"/>
	<path fill-rule="evenodd" clip-rule="evenodd" d="M90.643,0.104c1.139,0.104,1.968,0.622,2.175,1.969
		C91.471,2.072,90.85,1.243,90.643,0.104L90.643,0.104z"/>
	<path fill-rule="evenodd" clip-rule="evenodd" d="M89.917,61.845h6.112v-0.208l-1.968-0.932L93.025,0.104
		C93.025,0,93.025,0,92.921,0c0,0,0,0,0,0.104l-1.036,60.602l-1.968,0.932V61.845L89.917,61.845z"/>
	<path fill-rule="evenodd" clip-rule="evenodd" d="M107.113,19.476c-0.207,1.243-0.828,2.072-2.175,2.072
		C105.042,20.201,105.974,19.579,107.113,19.476L107.113,19.476z"/>
	<path fill-rule="evenodd" clip-rule="evenodd" d="M107.217,21.547c-0.207,1.139-0.828,1.968-2.175,1.968
		C105.146,22.169,106.077,21.651,107.217,21.547L107.217,21.547z"/>
	<path fill-rule="evenodd" clip-rule="evenodd" d="M100.173,19.372c-1.347,0-1.968-0.829-2.176-1.969
		C99.137,17.507,100.069,18.025,100.173,19.372L100.173,19.372z"/>
	<path fill-rule="evenodd" clip-rule="evenodd" d="M96.443,25.898c-1.45,0-2.071-0.829-2.279-1.968
		C95.407,24.034,96.236,24.551,96.443,25.898L96.443,25.898z"/>
	<path fill-rule="evenodd" clip-rule="evenodd" d="M111.257,32.114c-1.139,0.104-2.071,0.622-2.278,1.968
		C110.429,34.082,111.05,33.253,111.257,32.114L111.257,32.114z"/>
	<path fill-rule="evenodd" clip-rule="evenodd" d="M109.393,40.09c1.243,0.104,2.176,0.622,2.279,1.968
		C110.222,42.059,109.6,41.23,109.393,40.09L109.393,40.09z"/>
	<path fill-rule="evenodd" clip-rule="evenodd" d="M111.879,37.189c-1.243-0.103-2.176-0.622-2.176-2.072
		C111.153,35.222,111.775,36.05,111.879,37.189L111.879,37.189z"/>
	<path fill-rule="evenodd" clip-rule="evenodd" d="M74.482,44.027c-0.207-0.208-0.207-0.415-0.207-0.415l-0.414-11.81
		c0-0.207-0.104-0.311-0.104-0.311c-0.104,0-0.104,0.104-0.104,0.311l-0.518,12.535c0,0,0,0.311,0.207,0.415L92.921,56.25v-2.797
		L74.482,44.027L74.482,44.027z"/>
	<path fill-rule="evenodd" clip-rule="evenodd" d="M111.36,44.027c0.312-0.208,0.312-0.415,0.312-0.415l0.414-11.81
		c0-0.207,0-0.311,0.104-0.311c0,0,0.104,0.104,0.104,0.311l0.415,12.535c0,0,0.103,0.311-0.104,0.415L92.921,56.25v-2.797
		L111.36,44.027L111.36,44.027z"/>
	<path fill-rule="evenodd" clip-rule="evenodd" d="M77.9,35.532c-0.207-0.104-0.207-0.207-0.207-0.207l-0.311-9.945
		c0-0.104,0-0.208-0.104-0.208c0,0-0.104,0.104-0.104,0.208l-0.311,10.462c0,0-0.104,0.208,0.104,0.311l15.953,9.427v-2.279
		L77.9,35.532L77.9,35.532z"/>
	<path fill-rule="evenodd" clip-rule="evenodd" d="M107.942,35.532c0.207-0.104,0.207-0.207,0.207-0.207l0.414-9.945
		c0-0.104,0-0.208,0-0.208c0.104,0,0.104,0.104,0.104,0.208l0.415,10.462c0,0,0,0.208-0.104,0.311l-16.057,9.427v-2.279
		L107.942,35.532L107.942,35.532z"/>
	<path fill-rule="evenodd" clip-rule="evenodd" d="M81.63,27.142c-0.207-0.104-0.207-0.208-0.207-0.208l-0.207-7.458l-0.104-0.104
		l-0.103,0.104l-0.208,8.08c0,0,0,0.207,0.104,0.311l12.017,7.147v-1.968L81.63,27.142L81.63,27.142z"/>
	<path fill-rule="evenodd" clip-rule="evenodd" d="M104.316,27.142c0.104-0.104,0.104-0.208,0.104-0.208l0.311-7.458v-0.104
		c0.104,0,0.104,0.104,0.104,0.104l0.311,8.08c0,0,0,0.207-0.104,0.311l-12.121,7.147v-1.968L104.316,27.142L104.316,27.142z"/>
	<path fill-rule="evenodd" clip-rule="evenodd" d="M85.048,19.061c-0.104,0-0.104-0.104-0.104-0.104l-0.207-5.283
		c0-0.104-0.104-0.104-0.104-0.104s0,0,0,0.104l-0.311,5.698c0,0,0,0.207,0.104,0.207l8.494,5.076v-1.45L85.048,19.061
		L85.048,19.061z"/>
	<path fill-rule="evenodd" clip-rule="evenodd" d="M87.845,12.328v-0.104l-0.207-3.315c0-0.104,0-0.104-0.104-0.104c0,0,0,0,0,0.104
		l-0.207,3.729c0,0,0,0.104,0.104,0.104l5.49,3.211v-0.932L87.845,12.328L87.845,12.328z"/>
	<path fill-rule="evenodd" clip-rule="evenodd" d="M97.997,12.328c0.104,0,0.104-0.104,0.104-0.104l0.207-3.315
		c0-0.104,0-0.104,0-0.104s0,0,0,0.104l0.207,3.729v0.104l-5.594,3.211v-0.932L97.997,12.328L97.997,12.328z"/>
	<path fill-rule="evenodd" clip-rule="evenodd" d="M100.898,19.061c0.104,0,0.104-0.104,0.104-0.104l0.207-5.283
		c0-0.104,0-0.104,0-0.104c0.104,0,0.104,0,0.104,0.104l0.207,5.698c0,0,0,0.207-0.104,0.207l-8.495,5.076v-1.45L100.898,19.061
		L100.898,19.061z"/>
	<path fill-rule="evenodd" clip-rule="evenodd" d="M98.412,10.774c1.45,0,2.071-0.829,2.278-1.968
		C99.552,8.806,98.619,9.427,98.412,10.774L98.412,10.774z"/>
	<path fill-rule="evenodd" clip-rule="evenodd" d="M98.309,8.806c1.45,0,2.071-0.829,2.278-1.968
		C99.448,6.941,98.516,7.459,98.309,8.806L98.309,8.806z"/>
	<path fill-rule="evenodd" clip-rule="evenodd" d="M98.205,9.945c-1.348,0-1.969-0.932-2.176-2.072
		C97.169,7.977,98.102,8.598,98.205,9.945L98.205,9.945z"/>
	<path fill-rule="evenodd" clip-rule="evenodd" d="M98.102,11.914c-1.347-0.104-1.969-0.933-2.176-2.072
		C97.065,9.945,97.997,10.463,98.102,11.914L98.102,11.914z"/>
	<path fill-rule="evenodd" clip-rule="evenodd" d="M103.592,13.674c-0.207,1.243-0.829,2.072-2.176,2.072
		C101.52,14.399,102.452,13.778,103.592,13.674L103.592,13.674z"/>
	<path fill-rule="evenodd" clip-rule="evenodd" d="M103.488,11.603c-1.14,0.104-2.072,0.725-2.176,2.072
		C102.659,13.674,103.28,12.846,103.488,11.603L103.488,11.603z"/>
	<path fill-rule="evenodd" clip-rule="evenodd" d="M78.833,17.507c1.14,0.104,2.072,0.622,2.279,2.072
		C79.662,19.476,79.04,18.647,78.833,17.507L78.833,17.507z"/>
	<path fill-rule="evenodd" clip-rule="evenodd" d="M78.833,19.476c0.207,1.243,0.829,2.072,2.176,2.072
		C80.905,20.201,79.973,19.579,78.833,19.476L78.833,19.476z"/>
	<path fill-rule="evenodd" clip-rule="evenodd" d="M78.729,21.547c0.207,1.139,0.829,1.968,2.175,1.968
		C80.801,22.169,79.869,21.651,78.729,21.547L78.729,21.547z"/>
	<path fill-rule="evenodd" clip-rule="evenodd" d="M78.625,23.516c0.208,1.243,0.829,2.072,2.279,2.072
		C80.698,24.241,79.869,23.619,78.625,23.516L78.625,23.516z"/>
	<path fill-rule="evenodd" clip-rule="evenodd" d="M80.801,27.556c-1.347,0-1.968-0.829-2.176-1.968
		C79.765,25.691,80.698,26.209,80.801,27.556L80.801,27.556z"/>
	<path fill-rule="evenodd" clip-rule="evenodd" d="M84.427,19.372c-1.451,0-2.072-0.829-2.279-1.969
		C83.391,17.507,84.22,18.025,84.427,19.372L84.427,19.372z"/>
	<path fill-rule="evenodd" clip-rule="evenodd" d="M83.598,22.998c-1.139,0.104-2.072,0.725-2.175,2.072
		C82.77,25.069,83.391,24.241,83.598,22.998L83.598,22.998z"/>
	<path fill-rule="evenodd" clip-rule="evenodd" d="M81.526,27.038c1.347-0.104,1.968-0.932,2.175-2.072
		C82.562,25.069,81.63,25.587,81.526,27.038L81.526,27.038z"/>
	<path fill-rule="evenodd" clip-rule="evenodd" d="M85.256,25.898c-0.208,1.14-0.829,1.969-2.175,1.969
		C83.184,26.52,84.116,26.002,85.256,25.898L85.256,25.898z"/>
	<path fill-rule="evenodd" clip-rule="evenodd" d="M86.913,26.727c-0.207,1.14-0.829,1.968-2.175,1.968
		C84.841,27.348,85.773,26.831,86.913,26.727L86.913,26.727z"/>
	<path fill-rule="evenodd" clip-rule="evenodd" d="M88.57,27.556c-0.207,1.14-0.828,1.968-2.278,1.968
		C86.499,28.177,87.431,27.659,88.57,27.556L88.57,27.556z"/>
	<path fill-rule="evenodd" clip-rule="evenodd" d="M90.228,28.384c-0.207,1.14-0.932,1.968-2.279,2.072
		C88.156,29.006,88.985,28.488,90.228,28.384L90.228,28.384z"/>
	<path fill-rule="evenodd" clip-rule="evenodd" d="M89.606,31.285c1.347-0.104,1.968-0.933,2.175-2.072
		C90.643,29.317,89.71,29.834,89.606,31.285L89.606,31.285z"/>
	<path fill-rule="evenodd" clip-rule="evenodd" d="M84.945,18.958c1.45,0,2.072-0.829,2.279-1.968
		C85.981,17.093,85.152,17.611,84.945,18.958L84.945,18.958z"/>
	<path fill-rule="evenodd" clip-rule="evenodd" d="M88.778,17.818c-0.208,1.14-0.829,1.968-2.175,2.072
		C86.706,18.439,87.638,17.922,88.778,17.818L88.778,17.818z"/>
	<path fill-rule="evenodd" clip-rule="evenodd" d="M90.436,18.647c-0.208,1.139-0.829,1.968-2.176,2.072
		C88.364,19.268,89.296,18.75,90.436,18.647L90.436,18.647z"/>
	<path fill-rule="evenodd" clip-rule="evenodd" d="M92.093,19.476c-0.207,1.139-0.829,2.072-2.279,2.072
		C90.021,20.201,90.953,19.579,92.093,19.476L92.093,19.476z"/>
	<path fill-rule="evenodd" clip-rule="evenodd" d="M81.941,28.488c-0.208,1.14-0.932,1.968-2.279,1.968
		C79.869,29.109,80.698,28.592,81.941,28.488L81.941,28.488z"/>
	<path fill-rule="evenodd" clip-rule="evenodd" d="M81.216,31.389c0.207-1.347,1.036-1.969,2.279-2.072
		C83.288,30.56,82.562,31.389,81.216,31.389L81.216,31.389z"/>
	<path fill-rule="evenodd" clip-rule="evenodd" d="M82.77,32.321c0.207-1.347,1.036-1.968,2.279-2.072
		C84.841,31.492,84.116,32.321,82.77,32.321L82.77,32.321z"/>
	<path fill-rule="evenodd" clip-rule="evenodd" d="M84.323,33.253c0.208-1.45,1.036-1.968,2.279-2.072
		C86.395,32.321,85.67,33.15,84.323,33.253L84.323,33.253z"/>
	<path fill-rule="evenodd" clip-rule="evenodd" d="M87.431,35.014c0.207-1.347,1.036-1.864,2.279-1.968
		C89.503,34.186,88.778,35.014,87.431,35.014L87.431,35.014z"/>
	<path fill-rule="evenodd" clip-rule="evenodd" d="M85.463,20.201c-0.207,1.139-0.829,1.968-2.279,2.072
		C83.391,20.822,84.22,20.304,85.463,20.201L85.463,20.201z"/>
	<path fill-rule="evenodd" clip-rule="evenodd" d="M84.738,23.101c0.207-1.347,1.14-1.865,2.279-1.968
		C86.81,22.272,86.188,23.101,84.738,23.101L84.738,23.101z"/>
	<path fill-rule="evenodd" clip-rule="evenodd" d="M86.395,24.034c0.104-1.347,1.036-1.865,2.175-1.968
		C88.364,23.205,87.742,24.034,86.395,24.034L86.395,24.034z"/>
	<path fill-rule="evenodd" clip-rule="evenodd" d="M87.949,24.966c0.104-1.347,1.036-1.865,2.175-1.968
		C89.917,24.137,89.296,24.966,87.949,24.966L87.949,24.966z"/>
	<path fill-rule="evenodd" clip-rule="evenodd" d="M89.503,25.898c1.347,0,1.968-0.829,2.175-1.968
		C90.539,24.034,89.606,24.551,89.503,25.898L89.503,25.898z"/>
	<path fill-rule="evenodd" clip-rule="evenodd" d="M88.364,13.26c-0.208,1.14-0.933,1.968-2.279,2.072
		C86.292,13.881,87.12,13.364,88.364,13.26L88.364,13.26z"/>
	<path fill-rule="evenodd" clip-rule="evenodd" d="M87.742,16.161c0.103-1.347,1.036-1.865,2.175-1.968
		C89.71,15.332,89.089,16.161,87.742,16.161L87.742,16.161z"/>
	<path fill-rule="evenodd" clip-rule="evenodd" d="M89.296,17.093c0.104-1.347,1.036-1.865,2.175-1.968
		C91.264,16.264,90.643,17.093,89.296,17.093L89.296,17.093z"/>
	<path fill-rule="evenodd" clip-rule="evenodd" d="M87.328,12.639c-1.347,0-1.968-0.829-2.175-1.969
		C86.292,10.774,87.224,11.292,87.328,12.639L87.328,12.639z"/>
	<path fill-rule="evenodd" clip-rule="evenodd" d="M87.431,10.774c-1.347,0-1.968-0.829-2.175-1.968
		C86.395,8.806,87.328,9.427,87.431,10.774L87.431,10.774z"/>
	<path fill-rule="evenodd" clip-rule="evenodd" d="M87.535,8.806c-1.347,0-1.968-0.829-2.175-1.968
		C86.499,6.941,87.431,7.459,87.535,8.806L87.535,8.806z"/>
	<path fill-rule="evenodd" clip-rule="evenodd" d="M87.638,9.842c1.451,0,2.072-0.829,2.279-2.072
		C88.778,7.873,87.845,8.495,87.638,9.842L87.638,9.842z"/>
	<path fill-rule="evenodd" clip-rule="evenodd" d="M87.845,11.914c1.347-0.104,1.969-0.933,2.176-2.072
		C88.881,9.945,87.949,10.463,87.845,11.914L87.845,11.914z"/>
	<path fill-rule="evenodd" clip-rule="evenodd" d="M82.251,15.436c0.208,1.14,0.829,1.968,2.176,2.072
		C84.323,16.057,83.391,15.539,82.251,15.436L82.251,15.436z"/>
	<path fill-rule="evenodd" clip-rule="evenodd" d="M82.355,13.571c0.207,1.14,0.829,1.968,2.175,1.968
		C84.427,14.192,83.495,13.674,82.355,13.571L82.355,13.571z"/>
	<path fill-rule="evenodd" clip-rule="evenodd" d="M82.355,11.603c1.243,0.104,2.072,0.725,2.279,2.072
		C83.184,13.674,82.562,12.846,82.355,11.603L82.355,11.603z"/>
	<path fill-rule="evenodd" clip-rule="evenodd" d="M74.689,32.114c1.139,0.104,2.072,0.622,2.175,1.968
		C75.518,34.082,74.896,33.253,74.689,32.114L74.689,32.114z"/>
	<path fill-rule="evenodd" clip-rule="evenodd" d="M74.896,26.105c1.14,0.104,2.072,0.725,2.176,2.072
		C75.725,28.177,75.104,27.348,74.896,26.105L74.896,26.105z"/>
	<path fill-rule="evenodd" clip-rule="evenodd" d="M74.793,28.177c1.14,0.104,2.072,0.622,2.279,2.072
		C75.622,30.146,75,29.317,74.793,28.177L74.793,28.177z"/>
	<path fill-rule="evenodd" clip-rule="evenodd" d="M99.448,34.082c0.414,0,0.725-0.311,0.725-0.725c0-0.415-0.311-0.726-0.725-0.726
		c-0.415,0-0.829,0.311-0.829,0.726C98.619,33.771,99.033,34.082,99.448,34.082L99.448,34.082z"/>
	<polygon fill-rule="evenodd" clip-rule="evenodd" points="98.516,32.424 99.137,32.631 99.448,32.01 99.655,32.631 100.38,32.424 
		100.069,33.046 100.69,33.357 100.069,33.564 100.38,34.289 99.655,33.979 99.448,34.6 99.137,33.979 98.516,34.289 98.723,33.564 
		98.102,33.357 98.723,33.046 98.516,32.424 	"/>
	<path fill-rule="evenodd" clip-rule="evenodd" d="M96.962,39.779c0.414,0,0.725-0.414,0.725-0.829c0-0.414-0.311-0.725-0.725-0.725
		c-0.415,0-0.726,0.311-0.726,0.725C96.236,39.365,96.547,39.779,96.962,39.779L96.962,39.779z"/>
	<polygon fill-rule="evenodd" clip-rule="evenodd" points="96.029,38.019 96.755,38.329 96.962,37.708 97.272,38.329 97.894,38.019 
		97.687,38.744 98.309,38.951 97.687,39.262 97.894,39.883 97.272,39.676 96.962,40.297 96.755,39.676 96.029,39.883 96.34,39.262 
		95.719,38.951 96.34,38.744 96.029,38.019 	"/>
	<path fill-rule="evenodd" clip-rule="evenodd" d="M101.727,45.788c0.415,0,0.726-0.414,0.726-0.829
		c0-0.414-0.311-0.725-0.726-0.725c-0.414,0-0.725,0.311-0.725,0.725C101.002,45.374,101.313,45.788,101.727,45.788L101.727,45.788z
		"/>
	<polygon fill-rule="evenodd" clip-rule="evenodd" points="100.794,44.027 101.416,44.337 101.727,43.716 102.038,44.337 
		102.659,44.027 102.349,44.752 103.073,44.959 102.349,45.27 102.659,45.892 102.038,45.684 101.727,46.306 101.416,45.684 
		100.794,45.892 101.002,45.27 100.38,44.959 101.002,44.752 100.794,44.027 	"/>
	<path fill-rule="evenodd" clip-rule="evenodd" d="M103.28,53.454c0.415,0,0.726-0.415,0.726-0.829c0-0.311-0.311-0.725-0.726-0.725
		c-0.414,0-0.725,0.415-0.725,0.725C102.556,53.039,102.866,53.454,103.28,53.454L103.28,53.454z"/>
	<polygon fill-rule="evenodd" clip-rule="evenodd" points="102.349,51.692 102.97,52.003 103.28,51.382 103.592,52.003 
		104.213,51.692 104.006,52.417 104.627,52.625 104.006,52.936 104.213,53.557 103.592,53.35 103.28,53.972 102.97,53.35 
		102.349,53.557 102.556,52.936 101.934,52.625 102.556,52.417 102.349,51.692 	"/>
	<path fill-rule="evenodd" clip-rule="evenodd" d="M101.313,53.35c0.207,1.139-0.104,2.175-1.347,2.693
		C99.552,54.697,100.173,53.868,101.313,53.35L101.313,53.35z"/>
	<path fill-rule="evenodd" clip-rule="evenodd" d="M110.118,50.139c-1.243-0.104-2.176-0.725-2.176-2.072
		C109.393,48.067,110.014,48.999,110.118,50.139L110.118,50.139z"/>
	<path fill-rule="evenodd" clip-rule="evenodd" d="M98.826,45.477c-1.243-0.104-2.176-0.622-2.279-1.968
		C97.997,43.509,98.619,44.337,98.826,45.477L98.826,45.477z"/>
	<path fill-rule="evenodd" clip-rule="evenodd" d="M108.253,32.735c-1.347-0.104-1.968-0.933-2.176-2.072
		C107.217,30.767,108.149,31.285,108.253,32.735L108.253,32.735z"/>
	<path fill-rule="evenodd" clip-rule="evenodd" d="M100.794,39.158c-1.346,0-2.071-0.829-2.278-1.969
		C99.759,37.293,100.587,37.812,100.794,39.158L100.794,39.158z"/>
	<path fill-rule="evenodd" clip-rule="evenodd" d="M104.524,25.069c-1.451,0-2.072-0.829-2.279-2.072
		C103.488,23.101,104.316,23.723,104.524,25.069L104.524,25.069z"/>
	<path fill-rule="evenodd" clip-rule="evenodd" d="M115.712,41.644c-1.243-0.104-2.176-0.622-2.279-2.072
		C114.883,39.676,115.505,40.504,115.712,41.644L115.712,41.644z"/>
	<path fill-rule="evenodd" clip-rule="evenodd" d="M102.452,32.528c0.207,1.14-0.104,2.175-1.347,2.694
		C100.69,33.875,101.416,33.046,102.452,32.528L102.452,32.528z"/>
	<path fill-rule="evenodd" clip-rule="evenodd" d="M104.109,40.09c0.207,1.14-0.104,2.175-1.347,2.693
		C102.349,41.437,103.073,40.608,104.109,40.09L104.109,40.09z"/>
	<path fill-rule="evenodd" clip-rule="evenodd" d="M98.516,50.45c-1.347,0-1.969-0.829-2.176-2.072
		C97.479,48.481,98.412,49.103,98.516,50.45L98.516,50.45z"/>
	<path fill-rule="evenodd" clip-rule="evenodd" d="M107.528,58.944c0-1.554,1.347-2.9,2.9-2.9s2.797,1.347,2.797,2.9
		c0,1.554-1.243,2.901-2.797,2.901S107.528,60.498,107.528,58.944L107.528,58.944z M112.708,58.944c0-1.243-1.036-2.279-2.279-2.279
		c-1.347,0-2.383,1.036-2.383,2.279c0,1.347,1.036,2.279,2.383,2.279C111.672,61.223,112.708,60.291,112.708,58.944L112.708,58.944z
		 M111.879,60.498h-0.726l-0.725-1.347h-0.622v1.347h-0.621V57.39h1.554c0.207,0,0.621,0,0.829,0.207
		c0.311,0.104,0.311,0.415,0.311,0.725c0,0.622-0.207,0.829-0.829,0.829L111.879,60.498L111.879,60.498z M110.739,58.737
		c0.311,0,0.621-0.104,0.621-0.415c0-0.414-0.518-0.414-0.725-0.414h-0.829v0.829H110.739L110.739,58.737z"/>
	<path fill-rule="evenodd" clip-rule="evenodd" d="M184.911,119.959c-0.312,0.311-2.486,1.865-4.559,2.693
		c0.208-0.311,0.415-0.518,0.622-0.725c0.621-0.727,0.933-1.451,0.933-2.486c-0.104-1.141-1.036-1.865-1.658-2.797
		c0.415-0.414,1.243-1.244,1.243-1.969c0-0.207-0.207-0.414-0.414-0.414c-0.933,0-1.347,1.035-1.347,1.762
		c0,0.207,0.207,0.621,0.207,0.621c-1.243,1.863-3.729,3.521-4.351,4.143c-0.207,0.207-0.933,1.037-0.933,1.865
		c-0.104,0.932,0.104,1.762,1.45,1.762c0.933,0,2.383-0.414,3.626-1.244c2.693-0.828,5.387-3.004,5.387-3.004L184.911,119.959
		L184.911,119.959z M175.795,124.104c-0.829,0-0.933-0.727-0.933-1.348c0.104-0.725,0.415-1.242,0.829-1.555
		c0.518-0.621,3.004-2.277,4.351-4.35c0,0,0.726,1.242,0.726,1.865C180.975,121.202,177.349,123.897,175.795,124.104
		L175.795,124.104z"/>
	<path fill-rule="evenodd" clip-rule="evenodd" d="M153.419,119.856c-0.311,0.207-2.486,1.762-4.558,2.59
		c0.207-0.207,0.414-0.518,0.621-0.725c0.622-0.727,0.933-1.451,0.933-2.486c-0.104-1.141-1.036-1.865-1.657-2.693
		c0.414-0.518,1.242-1.348,1.242-1.969c0-0.207-0.206-0.518-0.414-0.518c-0.932,0-1.347,1.035-1.347,1.762
		c0,0.311,0.207,0.621,0.207,0.621c-1.243,1.863-3.729,3.625-4.351,4.143c-0.207,0.311-0.933,1.141-0.933,1.865
		c-0.104,0.932,0.104,1.762,1.45,1.762c0.933,0,2.383-0.416,3.626-1.244c2.693-0.828,5.387-3.004,5.387-3.004L153.419,119.856
		L153.419,119.856z M144.303,123.897c-0.828,0.104-0.932-0.623-0.932-1.348c0.104-0.621,0.414-1.139,0.828-1.555
		c0.519-0.621,3.004-2.277,4.351-4.35c0,0,0.726,1.242,0.726,1.863C149.482,120.995,145.856,123.792,144.303,123.897
		L144.303,123.897z"/>
	<path fill-rule="evenodd" clip-rule="evenodd" d="M66.195,119.856c-0.415,0.311-2.486,1.865-4.662,2.59
		c0.207-0.207,0.518-0.414,0.622-0.725c0.622-0.727,1.036-1.348,0.932-2.486c-0.104-1.141-1.036-1.865-1.657-2.693
		c0.415-0.414,1.243-1.244,1.243-1.969c0-0.207-0.208-0.414-0.415-0.414c-0.829,0-1.243,1.035-1.243,1.76
		c0,0.209,0.104,0.623,0.104,0.623c-1.244,1.863-3.626,3.521-4.248,4.143c-0.311,0.207-0.932,1.037-1.036,1.865
		c-0.104,0.932,0.104,1.658,1.45,1.658c0.932,0,2.382-0.311,3.625-1.244c2.693-0.725,5.387-2.9,5.387-2.9L66.195,119.856
		L66.195,119.856z M56.975,123.897c-0.829,0.104-0.932-0.623-0.829-1.348c0-0.621,0.415-1.139,0.725-1.555
		c0.518-0.621,3.004-2.277,4.455-4.246c0,0,0.622,1.139,0.622,1.865C62.155,121.098,58.633,123.792,56.975,123.897L56.975,123.897z"
		/>
</g>
</svg>
